<svg width="70" height="20" viewBox="0 0 70 20" fill="none" xmlns="http://www.w3.org/2000/svg">
<rect width="70" height="20" rx="10" fill="white"/>
<path d="M27.9263 12.4263C27.9263 12.2974 27.894 12.181 27.8296 12.0771C27.7651 11.9697 27.6416 11.873 27.459 11.7871C27.2799 11.7012 27.015 11.6224 26.6641 11.5508C26.3561 11.4827 26.0732 11.4022 25.8154 11.3091C25.5612 11.2124 25.3428 11.096 25.1602 10.96C24.9775 10.8239 24.8361 10.6628 24.7358 10.4766C24.6356 10.2904 24.5854 10.0755 24.5854 9.83203C24.5854 9.5957 24.6374 9.37191 24.7412 9.16064C24.8451 8.94938 24.9937 8.76318 25.187 8.60205C25.3804 8.44092 25.6149 8.3138 25.8906 8.2207C26.1699 8.1276 26.4814 8.08105 26.8252 8.08105C27.3122 8.08105 27.7293 8.16341 28.0767 8.32812C28.4276 8.48926 28.6961 8.70947 28.8823 8.98877C29.0685 9.26449 29.1616 9.57601 29.1616 9.92334H27.8672C27.8672 9.76937 27.8278 9.62614 27.749 9.49365C27.6738 9.35758 27.5592 9.24837 27.4053 9.16602C27.2513 9.08008 27.0579 9.03711 26.8252 9.03711C26.6032 9.03711 26.4188 9.07292 26.272 9.14453C26.1287 9.21257 26.0213 9.30208 25.9497 9.41309C25.8817 9.52409 25.8477 9.64583 25.8477 9.77832C25.8477 9.875 25.8656 9.96273 25.9014 10.0415C25.9408 10.1167 26.0052 10.1865 26.0947 10.251C26.1842 10.3118 26.306 10.3691 26.46 10.4229C26.6175 10.4766 26.8145 10.5285 27.0508 10.5786C27.4948 10.6717 27.8761 10.7917 28.1948 10.9385C28.5171 11.0817 28.7642 11.2679 28.936 11.4971C29.1079 11.7227 29.1938 12.0091 29.1938 12.3564C29.1938 12.6143 29.1383 12.8506 29.0273 13.0654C28.9199 13.2767 28.7624 13.4611 28.5547 13.6187C28.347 13.7726 28.0981 13.8926 27.8081 13.9785C27.5216 14.0645 27.1994 14.1074 26.8413 14.1074C26.3149 14.1074 25.8691 14.0143 25.5039 13.8281C25.1387 13.6383 24.8612 13.3966 24.6714 13.103C24.4852 12.8058 24.3921 12.4979 24.3921 12.1792H25.6436C25.6579 12.4191 25.7241 12.6107 25.8423 12.7539C25.964 12.8936 26.1144 12.9956 26.2935 13.0601C26.4761 13.1209 26.6641 13.1514 26.8574 13.1514C27.0902 13.1514 27.2853 13.1209 27.4429 13.0601C27.6004 12.9956 27.7204 12.9097 27.8027 12.8022C27.8851 12.6912 27.9263 12.5659 27.9263 12.4263ZM33.3892 14.1074C32.9595 14.1074 32.571 14.0376 32.2236 13.8979C31.8799 13.7547 31.5863 13.556 31.3428 13.3018C31.1029 13.0475 30.9185 12.7485 30.7896 12.4048C30.6606 12.061 30.5962 11.6904 30.5962 11.293V11.0781C30.5962 10.6234 30.6624 10.2116 30.7949 9.84277C30.9274 9.47396 31.1118 9.15885 31.3481 8.89746C31.5845 8.63249 31.8638 8.43018 32.186 8.29053C32.5083 8.15088 32.8574 8.08105 33.2334 8.08105C33.6488 8.08105 34.0122 8.15088 34.3237 8.29053C34.6353 8.43018 34.8931 8.62712 35.0972 8.88135C35.3049 9.132 35.4588 9.43099 35.5591 9.77832C35.6629 10.1257 35.7148 10.5088 35.7148 10.9277V11.481H31.2246V10.5518H34.4365V10.4497C34.4294 10.217 34.3828 9.99854 34.2969 9.79443C34.2145 9.59033 34.0874 9.42562 33.9155 9.30029C33.7437 9.17497 33.5145 9.1123 33.228 9.1123C33.0132 9.1123 32.8216 9.15885 32.6533 9.25195C32.4886 9.34147 32.3507 9.47217 32.2397 9.64404C32.1287 9.81592 32.0428 10.0236 31.9819 10.2671C31.9246 10.507 31.896 10.7773 31.896 11.0781V11.293C31.896 11.5472 31.93 11.7835 31.998 12.002C32.0697 12.2168 32.1735 12.4048 32.3096 12.5659C32.4456 12.7271 32.6104 12.8542 32.8037 12.9473C32.9971 13.0368 33.2173 13.0815 33.4644 13.0815C33.7759 13.0815 34.0534 13.0189 34.2969 12.8936C34.5404 12.7682 34.7516 12.591 34.9307 12.3618L35.6128 13.0225C35.4875 13.2051 35.3245 13.3805 35.124 13.5488C34.9235 13.7135 34.6782 13.8478 34.3882 13.9517C34.1017 14.0555 33.7687 14.1074 33.3892 14.1074ZM39.7866 14.1074C39.3569 14.1074 38.9684 14.0376 38.6211 13.8979C38.2773 13.7547 37.9837 13.556 37.7402 13.3018C37.5003 13.0475 37.3159 12.7485 37.187 12.4048C37.0581 12.061 36.9937 11.6904 36.9937 11.293V11.0781C36.9937 10.6234 37.0599 10.2116 37.1924 9.84277C37.3249 9.47396 37.5093 9.15885 37.7456 8.89746C37.9819 8.63249 38.2612 8.43018 38.5835 8.29053C38.9058 8.15088 39.2549 8.08105 39.6309 8.08105C40.0462 8.08105 40.4097 8.15088 40.7212 8.29053C41.0327 8.43018 41.2905 8.62712 41.4946 8.88135C41.7023 9.132 41.8563 9.43099 41.9565 9.77832C42.0604 10.1257 42.1123 10.5088 42.1123 10.9277V11.481H37.6221V10.5518H40.834V10.4497C40.8268 10.217 40.7803 9.99854 40.6943 9.79443C40.612 9.59033 40.4849 9.42562 40.313 9.30029C40.1411 9.17497 39.9119 9.1123 39.6255 9.1123C39.4106 9.1123 39.2191 9.15885 39.0508 9.25195C38.8861 9.34147 38.7482 9.47217 38.6372 9.64404C38.5262 9.81592 38.4403 10.0236 38.3794 10.2671C38.3221 10.507 38.2935 10.7773 38.2935 11.0781V11.293C38.2935 11.5472 38.3275 11.7835 38.3955 12.002C38.4671 12.2168 38.571 12.4048 38.707 12.5659C38.8431 12.7271 39.0078 12.8542 39.2012 12.9473C39.3945 13.0368 39.6147 13.0815 39.8618 13.0815C40.1733 13.0815 40.4508 13.0189 40.6943 12.8936C40.9378 12.7682 41.1491 12.591 41.3281 12.3618L42.0103 13.0225C41.8849 13.2051 41.722 13.3805 41.5215 13.5488C41.321 13.7135 41.0757 13.8478 40.7856 13.9517C40.4992 14.0555 40.1662 14.1074 39.7866 14.1074Z" fill="#8D8D8D"/>
<path d="M47.7256 11.9536C47.7256 11.814 47.7041 11.6886 47.6611 11.5776C47.6217 11.4631 47.5465 11.3592 47.4355 11.2661C47.3245 11.1694 47.1688 11.0745 46.9683 10.9814C46.7677 10.8883 46.5081 10.7917 46.1895 10.6914C45.835 10.5768 45.4984 10.4479 45.1797 10.3047C44.8646 10.1615 44.5853 9.99495 44.3418 9.80518C44.1019 9.61182 43.9121 9.38802 43.7725 9.13379C43.6364 8.87956 43.5684 8.58415 43.5684 8.24756C43.5684 7.92171 43.64 7.6263 43.7832 7.36133C43.9264 7.09277 44.127 6.86361 44.3848 6.67383C44.6426 6.48047 44.9469 6.33187 45.2979 6.22803C45.6523 6.12419 46.0409 6.07227 46.4634 6.07227C47.0399 6.07227 47.543 6.17611 47.9727 6.38379C48.4023 6.59147 48.7354 6.87614 48.9717 7.23779C49.2116 7.59945 49.3315 8.01302 49.3315 8.47852H47.731C47.731 8.24935 47.6826 8.04883 47.5859 7.87695C47.4928 7.7015 47.3496 7.56364 47.1562 7.46338C46.9665 7.36312 46.7266 7.31299 46.4365 7.31299C46.1572 7.31299 45.9245 7.35596 45.7383 7.44189C45.5521 7.52425 45.4124 7.63704 45.3193 7.78027C45.2262 7.91992 45.1797 8.07747 45.1797 8.25293C45.1797 8.38542 45.2119 8.50537 45.2764 8.61279C45.3444 8.72021 45.4447 8.82048 45.5771 8.91357C45.7096 9.00667 45.8726 9.0944 46.0659 9.17676C46.2593 9.25911 46.4831 9.33968 46.7373 9.41846C47.1634 9.54736 47.5376 9.69238 47.8599 9.85352C48.1857 10.0146 48.4578 10.1955 48.6763 10.396C48.8947 10.5965 49.0594 10.8239 49.1704 11.0781C49.2814 11.3324 49.3369 11.6206 49.3369 11.9429C49.3369 12.283 49.2707 12.5874 49.1382 12.856C49.0057 13.1245 48.8141 13.3519 48.5635 13.5381C48.3128 13.7243 48.0138 13.8657 47.6665 13.9624C47.3192 14.0591 46.9307 14.1074 46.501 14.1074C46.1143 14.1074 45.7329 14.0573 45.3569 13.957C44.981 13.8532 44.639 13.6974 44.3311 13.4897C44.0267 13.2821 43.7832 13.0171 43.6006 12.6948C43.418 12.3726 43.3267 11.9912 43.3267 11.5508H44.9434C44.9434 11.7943 44.981 12.0002 45.0562 12.1685C45.1313 12.3368 45.237 12.4728 45.373 12.5767C45.5127 12.6805 45.6774 12.7557 45.8672 12.8022C46.0605 12.8488 46.2718 12.8721 46.501 12.8721C46.7803 12.8721 47.0094 12.8327 47.1885 12.7539C47.3711 12.6751 47.5054 12.5659 47.5913 12.4263C47.6808 12.2866 47.7256 12.1291 47.7256 11.9536ZM53.5107 14.1074C53.0596 14.1074 52.6549 14.0358 52.2969 13.8926C51.9388 13.7458 51.6344 13.5435 51.3838 13.2856C51.1367 13.0278 50.9469 12.7288 50.8145 12.3887C50.682 12.0449 50.6157 11.6797 50.6157 11.293V11.0781C50.6157 10.6377 50.6784 10.2349 50.8037 9.86963C50.929 9.50439 51.1081 9.1875 51.3408 8.91895C51.5771 8.65039 51.8636 8.4445 52.2002 8.30127C52.5368 8.15446 52.9163 8.08105 53.3389 8.08105C53.7507 8.08105 54.1159 8.14909 54.4346 8.28516C54.7533 8.42122 55.02 8.61458 55.2349 8.86523C55.4533 9.11589 55.618 9.41667 55.729 9.76758C55.84 10.1149 55.8955 10.5016 55.8955 10.9277V11.5723H51.2764V10.541H54.3755V10.4229C54.3755 10.208 54.3361 10.0164 54.2573 9.84814C54.1821 9.67627 54.0675 9.5402 53.9136 9.43994C53.7596 9.33968 53.5627 9.28955 53.3228 9.28955C53.1187 9.28955 52.9432 9.33431 52.7964 9.42383C52.6496 9.51335 52.5296 9.63867 52.4365 9.7998C52.347 9.96094 52.279 10.1507 52.2324 10.3691C52.1895 10.584 52.168 10.8203 52.168 11.0781V11.293C52.168 11.5257 52.2002 11.7406 52.2646 11.9375C52.3327 12.1344 52.4276 12.3045 52.5493 12.4478C52.6746 12.591 52.825 12.702 53.0005 12.7808C53.1795 12.8595 53.3818 12.8989 53.6074 12.8989C53.8867 12.8989 54.1463 12.8452 54.3862 12.7378C54.6297 12.6268 54.8392 12.4603 55.0146 12.2383L55.7666 13.0547C55.6449 13.2301 55.4784 13.3984 55.2671 13.5596C55.0594 13.7207 54.8088 13.8532 54.5151 13.957C54.2215 14.0573 53.8867 14.1074 53.5107 14.1074ZM60.4131 12.6895V10.1006C60.4131 9.91439 60.3826 9.75505 60.3218 9.62256C60.2609 9.48649 60.166 9.38086 60.0371 9.30566C59.9118 9.23047 59.7489 9.19287 59.5483 9.19287C59.3765 9.19287 59.2279 9.22331 59.1025 9.28418C58.9772 9.34147 58.8805 9.42562 58.8125 9.53662C58.7445 9.64404 58.7104 9.77116 58.7104 9.91797H57.1636C57.1636 9.6709 57.2209 9.43636 57.3354 9.21436C57.45 8.99235 57.6165 8.7972 57.835 8.62891C58.0534 8.45703 58.313 8.32275 58.6138 8.22607C58.9181 8.12939 59.2583 8.08105 59.6343 8.08105C60.0854 8.08105 60.4865 8.15625 60.8374 8.30664C61.1883 8.45703 61.464 8.68262 61.6646 8.9834C61.8687 9.28418 61.9707 9.66016 61.9707 10.1113V12.5981C61.9707 12.9168 61.9904 13.1782 62.0298 13.3823C62.0692 13.5828 62.1265 13.7583 62.2017 13.9087V14H60.6387C60.5635 13.8424 60.5062 13.6455 60.4668 13.4092C60.431 13.1693 60.4131 12.9294 60.4131 12.6895ZM60.6172 10.4604L60.6279 11.3359H59.7632C59.5591 11.3359 59.3818 11.3592 59.2314 11.4058C59.0811 11.4523 58.9575 11.5186 58.8608 11.6045C58.7642 11.6868 58.6925 11.7835 58.646 11.8945C58.603 12.0055 58.5815 12.1273 58.5815 12.2598C58.5815 12.3923 58.612 12.5122 58.6729 12.6196C58.7337 12.7235 58.8215 12.8058 58.936 12.8667C59.0506 12.924 59.1849 12.9526 59.3389 12.9526C59.5716 12.9526 59.7739 12.9061 59.9458 12.813C60.1177 12.7199 60.2502 12.6053 60.3433 12.4692C60.4399 12.3332 60.4901 12.2043 60.4937 12.0825L60.9019 12.7378C60.8446 12.8846 60.7658 13.0368 60.6655 13.1943C60.5688 13.3519 60.4453 13.5005 60.2949 13.6401C60.1445 13.7762 59.9637 13.889 59.7524 13.9785C59.5412 14.0645 59.2905 14.1074 59.0005 14.1074C58.6317 14.1074 58.2969 14.034 57.9961 13.8872C57.6989 13.7368 57.4626 13.5309 57.2871 13.2695C57.1152 13.0046 57.0293 12.7038 57.0293 12.3672C57.0293 12.0628 57.0866 11.7925 57.2012 11.5562C57.3158 11.3198 57.484 11.1211 57.7061 10.96C57.9316 10.7952 58.2127 10.6717 58.5493 10.5894C58.8859 10.5034 59.2762 10.4604 59.7202 10.4604H60.6172Z" fill="black"/>
<path d="M6.93945 9.10339V15.59C6.93945 15.7143 6.98884 15.8335 7.07675 15.9214C7.16465 16.0093 7.28388 16.0587 7.4082 16.0587H19.591C19.7153 16.0587 19.8346 16.0093 19.9225 15.9214C20.0104 15.8335 20.0598 15.7143 20.0598 15.59V10.3643C19.3027 10.6446 18.7365 11.0867 18.1927 11.5578V11.555L18.1684 11.5784L17.9134 11.8025L17.8988 11.8151C17.8451 11.8579 17.7868 11.9017 17.724 11.9464C17.3923 12.1805 17.0279 12.3643 16.6426 12.492C16.2076 12.6373 15.6671 12.7203 15.0821 12.7479C14.4491 12.8087 13.8119 12.6887 13.2443 12.402C12.6767 12.1153 12.202 11.6736 11.8752 11.1281C11.5484 10.5826 11.383 9.95566 11.398 9.31994C11.4131 8.68422 11.608 8.0658 11.9602 7.53636C12.2363 7.80415 12.6059 7.95366 12.9905 7.95308C13.3159 7.95308 13.6173 7.84808 13.8615 7.66996C13.8976 7.64652 13.9196 7.63339 13.9341 7.62589H13.9351C13.9423 7.62902 13.9554 7.63558 13.9745 7.64558C14.2332 7.84522 14.5509 7.95337 14.8777 7.95308C15.2541 7.95308 15.5982 7.81246 15.8593 7.58136C15.8749 7.56944 15.8919 7.55952 15.9099 7.55183C15.9231 7.55666 15.9357 7.56295 15.9474 7.57058C16.1233 7.73027 16.335 7.84518 16.5647 7.90556C16.7944 7.96595 17.0353 7.97003 17.267 7.91746C17.3039 7.97973 17.3532 8.03382 17.4118 8.07641C17.4703 8.11901 17.5369 8.14923 17.6076 8.16522C17.6782 8.18121 17.7514 8.18264 17.8226 8.16941C17.8938 8.15619 17.9615 8.1286 18.0217 8.08832C18.0819 8.04804 18.1332 7.99591 18.1726 7.93513C18.212 7.87435 18.2385 7.80618 18.2507 7.73478C18.2628 7.66339 18.2603 7.59027 18.2432 7.51989C18.2262 7.44951 18.195 7.38334 18.1515 7.32542C18.3374 7.06213 18.4324 6.74536 18.422 6.42318C18.4117 6.10101 18.2965 5.79102 18.0939 5.54025C17.8914 5.28947 17.6126 5.11161 17.2998 5.03364C16.9871 4.95568 16.6574 4.98187 16.3609 5.10824L16.3126 5.04636C16.3817 4.94375 16.413 4.82029 16.4011 4.69714C16.3892 4.57399 16.3349 4.4588 16.2475 4.37129C16.16 4.28378 16.0448 4.22939 15.9217 4.21743C15.7986 4.20547 15.6751 4.23669 15.5724 4.30574C14.8365 3.7273 13.7649 3.25574 12.2912 3.25574C9.65961 3.25574 6.93945 5.92105 6.93945 9.10339ZM11.5913 5.98433C11.5372 6.14132 11.5094 6.30622 11.5093 6.4723C11.5093 6.71183 11.566 6.93824 11.6673 7.13839C11.232 7.73407 10.9779 8.44271 10.9355 9.17925C10.8931 9.91579 11.0642 10.6489 11.4282 11.2906C11.7922 11.9323 12.3337 12.4553 12.9877 12.7968C13.6417 13.1383 14.3803 13.2837 15.1149 13.2157C15.446 13.2007 15.7759 13.165 16.1026 13.1089C15.5063 13.3976 14.8112 13.5875 13.9702 13.5875C11.9785 13.5875 9.65961 11.7959 9.65961 9.44699C9.65961 7.71496 10.5751 6.5923 11.5913 5.98433ZM11.978 6.4723C11.978 6.28506 12.0299 6.10148 12.128 5.94197C12.2261 5.78246 12.3665 5.65326 12.5335 5.56875C12.7006 5.48423 12.8879 5.44771 13.0745 5.46323C13.2611 5.47875 13.4397 5.54572 13.5905 5.65667L13.6009 5.66417L13.6121 5.67074C13.7045 5.72371 13.8155 5.7673 13.9435 5.76589C14.0701 5.76449 14.1873 5.71996 14.2951 5.64261L14.3007 5.64027L14.3166 5.62949C14.4827 5.51858 14.678 5.45952 14.8777 5.4598C15.0868 5.4598 15.2799 5.52308 15.4407 5.63089L15.4515 5.63792L15.4543 5.6398L15.4585 5.64261L15.4885 5.66464L15.4932 5.66792L15.497 5.67074C15.6188 5.75464 15.7524 5.80855 15.9029 5.80761C16.051 5.80714 16.1865 5.75371 16.3121 5.67683L16.322 5.67074L16.3313 5.66371C16.4852 5.54769 16.669 5.478 16.8611 5.4628C17.0532 5.44761 17.2456 5.48755 17.4158 5.57794C17.586 5.66832 17.7269 5.8054 17.8218 5.97306C17.9168 6.14072 17.962 6.33201 17.952 6.52445C17.9421 6.7169 17.8774 6.9025 17.7656 7.05947C17.6539 7.21644 17.4996 7.33825 17.321 7.41059C17.1424 7.48293 16.9469 7.50281 16.7574 7.46788C16.5679 7.43295 16.3922 7.34466 16.2512 7.21339L16.2371 7.20074L16.2216 7.19042C16.1246 7.1248 16.0116 7.07558 15.8809 7.08402C15.7543 7.09152 15.6526 7.15152 15.5729 7.21058L15.5635 7.21714L15.5551 7.22511C15.3694 7.39275 15.1279 7.48531 14.8777 7.4848C14.641 7.4848 14.423 7.40371 14.251 7.2673L14.2379 7.25699L14.2238 7.24855C14.138 7.19886 14.0293 7.14496 13.898 7.15621C13.7762 7.16652 13.6749 7.23121 13.5976 7.28277L13.5929 7.28605L13.5887 7.28933C13.4378 7.39981 13.2592 7.46633 13.0729 7.48153C12.8865 7.49673 12.6995 7.46002 12.5327 7.37545C12.3659 7.29089 12.2258 7.16178 12.1279 7.00245C12.03 6.84311 11.9781 6.65931 11.978 6.4723Z" fill="black"/>
<path d="M19.0899 6.81688C19.1612 6.819 19.2323 6.80677 19.2988 6.78093C19.3653 6.75509 19.426 6.71615 19.4772 6.66643C19.5284 6.61671 19.5692 6.55721 19.597 6.49147C19.6248 6.42572 19.6391 6.35506 19.6391 6.28368C19.6391 6.2123 19.6248 6.14164 19.597 6.0759C19.5692 6.01015 19.5284 5.95066 19.4772 5.90093C19.426 5.85121 19.3653 5.81228 19.2988 5.78643C19.2323 5.76059 19.1612 5.74836 19.0899 5.75048C18.9512 5.75459 18.8196 5.81257 18.7229 5.91212C18.6263 6.01166 18.5722 6.14494 18.5722 6.28368C18.5722 6.42242 18.6263 6.5557 18.7229 6.65525C18.8196 6.75479 18.9512 6.81277 19.0899 6.81688ZM19.6233 9.02001C19.6254 9.09136 19.6132 9.16241 19.5873 9.22895C19.5615 9.29549 19.5226 9.35617 19.4728 9.40739C19.4231 9.4586 19.3636 9.49932 19.2979 9.52713C19.2321 9.55493 19.1615 9.56926 19.0901 9.56926C19.0187 9.56926 18.948 9.55493 18.8823 9.52713C18.8166 9.49932 18.7571 9.4586 18.7073 9.40739C18.6576 9.35617 18.6187 9.29549 18.5928 9.22895C18.567 9.16241 18.5548 9.09136 18.5569 9.02001C18.561 8.88133 18.619 8.74971 18.7185 8.65307C18.8181 8.55644 18.9513 8.50238 19.0901 8.50238C19.2288 8.50238 19.3621 8.55644 19.4617 8.65307C19.5612 8.74971 19.6192 8.88133 19.6233 9.02001ZM14.46 9.16017C14.5314 9.16228 14.6024 9.15006 14.669 9.12421C14.7355 9.09837 14.7962 9.05943 14.8474 9.00971C14.8986 8.95999 14.9393 8.90049 14.9671 8.83475C14.9949 8.769 15.0093 8.69835 15.0093 8.62696C15.0093 8.55558 14.9949 8.48492 14.9671 8.41918C14.9393 8.35343 14.8986 8.29394 14.8474 8.24422C14.7962 8.1945 14.7355 8.15556 14.669 8.12971C14.6024 8.10387 14.5314 8.09164 14.46 8.09376C14.3213 8.09787 14.1897 8.15585 14.0931 8.2554C13.9964 8.35494 13.9424 8.48822 13.9424 8.62696C13.9424 8.7657 13.9964 8.89898 14.0931 8.99853C14.1897 9.09807 14.3213 9.15605 14.46 9.16017Z" fill="black"/>
</svg>
